<?xml version="1.0" encoding="UTF-8" standalone="no"?>
<svg
   xmlns:dc="http://purl.org/dc/elements/1.1/"
   xmlns:cc="http://creativecommons.org/ns#"
   xmlns:rdf="http://www.w3.org/1999/02/22-rdf-syntax-ns#"
   xmlns:svg="http://www.w3.org/2000/svg"
   xmlns="http://www.w3.org/2000/svg"
   xmlns:sodipodi="http://sodipodi.sourceforge.net/DTD/sodipodi-0.dtd"
   xmlns:inkscape="http://www.inkscape.org/namespaces/inkscape"
   viewBox="0 0 2559 2563"
   version="1.1"
   id="svg16"
   sodipodi:docname="new_icon_xero.svg"
   inkscape:version="0.92.4 (5da689c313, 2019-01-14)"
   inkscape:export-filename="K:\_PROJECTS\JoinBot\new_icon_xero.png"
   inkscape:export-xdpi="19.209999"
   inkscape:export-ydpi="19.209999">
  <metadata
     id="metadata20">
    <rdf:RDF>
      <cc:Work
         rdf:about="">
        <dc:format>image/svg+xml</dc:format>
        <dc:type
           rdf:resource="http://purl.org/dc/dcmitype/StillImage" />
      </cc:Work>
    </rdf:RDF>
  </metadata>
  <sodipodi:namedview
     pagecolor="#ffffff"
     bordercolor="#666666"
     borderopacity="1"
     objecttolerance="10"
     gridtolerance="10"
     guidetolerance="10"
     inkscape:pageopacity="0"
     inkscape:pageshadow="2"
     inkscape:window-width="1920"
     inkscape:window-height="1096"
     id="namedview18"
     showgrid="false"
     inkscape:zoom="0.18415919"
     inkscape:cx="1380.2701"
     inkscape:cy="986.12317"
     inkscape:window-x="-8"
     inkscape:window-y="-8"
     inkscape:window-maximized="1"
     inkscape:current-layer="Layer_1-2" />
  <defs
     id="defs4">
    <style
       id="style2">.cls-1{fill:#29abe2;}</style>
  </defs>
  <g
     id="Layer_2"
     data-name="Layer 2">
    <g
       id="Layer_1-2"
       data-name="Layer 1">
      <rect
         style="fill:#282c34;fill-opacity:1;stroke:none;stroke-width:7.24321842;stroke-linecap:round;stroke-linejoin:round;stroke-miterlimit:4;stroke-dasharray:none;stroke-opacity:0.38947371;paint-order:stroke markers fill"
         id="rect827"
         width="2559"
         height="2563"
         x="-2.8421709e-14"
         y="2.5028073e-13" />
      <path
         class="cls-1"
         d="M 2559,0 V 1231.59 C 2532.27,548.54 1969.86,3 1280,3 573.08,3 0,575.85 0,1282.5 V 0 Z"
         id="path6"
         inkscape:connector-curvature="0"
         style="fill:#61dafb;fill-opacity:1" />
      <path
         class="cls-1"
         d="M 2559,1333.41 V 2563 H 0 V 1282.5 C 0,1989.15 573.08,2562 1280,2562 c 689.86,0 1252.27,-545.54 1279,-1228.59 z"
         id="path8"
         inkscape:connector-curvature="0"
         style="fill:#61dafb;fill-opacity:1" />
      <path
         class="cls-1"
         d="m 2060.1,636.05 c -663.82,0 -748.56,-249.24 -759.25,-292.36 -0.33,-1.39 -0.61,-2.62 -0.82,-3.69 -0.18,0.94 -0.41,2 -0.69,3.16 -10.7,43.12 -95.44,292.36 -759.26,292.36 0,0 -60.5,1138.88 757.74,1566.9 v 0.54 a 1365.6,1365.6 0 0 0 147.74,-101.73 331.95,331.95 0 0 1 6.9,-477.32 H 873.58 c 0.53,-234.28 190.6,-424 425,-424 -117.19,-0.53 -212,-95.68 -212,-213 0,-117.63 95.36,-213 213,-213 117.64,0 213,95.36 213,213 0,117.64 -95.36,213 -213,213 203.7,0.45 373.73,144.21 414.64,335.81 a 329.77,329.77 0 0 1 139.92,47.67 C 2080.3,1118.9 2060.1,636.05 2060.1,636.05 Z"
         id="path10"
         inkscape:connector-curvature="0"
         style="fill:#61dafb;fill-opacity:1" />
      <polygon
         class="cls-1"
         points="1500.28,1814.43 1609.14,1923.29 1853.11,1679.33 1926,1752.23 1609.14,2069.09 1427.38,1887.33 "
         id="polygon12"
         style="fill:#61dafb;fill-opacity:1" />
    </g>
  </g>
</svg>
